<?xml version="1.0" encoding="utf-8"?>
<!-- Generator: Adobe Illustrator 24.2.3, SVG Export Plug-In . SVG Version: 6.00 Build 0)  -->
<svg version="1.1" id="Landscape__x2F__DoITT__x2F__Solid_copy"
	 xmlns="http://www.w3.org/2000/svg" xmlns:xlink="http://www.w3.org/1999/xlink" x="0px" y="0px" viewBox="0 0 792 612"
	 style="enable-background:new 0 0 792 612;" xml:space="preserve">
<style type="text/css">
	.st0{fill:#111921;}
	.st1{fill:#F8951D;}
</style>
<g>
	<path class="st0" d="M370.39,258.02h27.58c20.5,0,29.35,14.91,29.35,33.26c0,18.36-8.85,33.26-29.35,33.26h-27.58V258.02z
		 M382.04,315.04h11.46c18.26,0,22.18-10.44,22.18-23.76c0-13.32-3.91-23.76-22.18-23.76h-11.46V315.04z"/>
	<path class="st0" d="M496.93,291.28c0,19.01-11.93,34.85-31.87,34.85c-19.94,0-31.87-15.84-31.87-34.85
		c0-19.01,11.93-34.85,31.87-34.85C485.01,256.43,496.93,272.27,496.93,291.28z M444.85,291.28c0,12.77,5.96,25.34,20.22,25.34
		c14.26,0,20.22-12.58,20.22-25.34c0-12.76-5.96-25.34-20.22-25.34C450.81,265.94,444.85,278.51,444.85,291.28z"/>
	<path class="st0" d="M504.4,258.02h11.65v66.53H504.4V258.02z"/>
	<path class="st0" d="M521.75,258.02h53.85v10.06h-21.15v56.46h-11.65v-56.46h-21.06V258.02z"/>
	<path class="st0" d="M578.43,258.02h53.85v10.06h-21.15v56.46h-11.65v-56.46h-21.06V258.02z"/>
</g>
<g>
	<polygon class="st1" points="353.56,287.09 357.72,282.98 357.72,270.51 345.24,258.03 303.66,258.03 291.19,270.51 291.19,262.19 
		287.03,258.03 270.39,258.03 266.24,262.19 266.24,270.51 257.92,278.83 249.6,270.51 249.6,262.19 245.44,258.03 228.81,258.03 
		224.65,262.19 220.49,258.03 203.86,258.03 199.7,262.19 199.7,278.83 178.91,258.03 162.28,258.03 158.12,262.19 158.12,320.41 
		162.28,324.57 178.91,324.57 183.07,320.41 183.07,303.77 203.86,324.57 220.49,324.57 224.65,320.41 224.65,287.14 245.44,307.93 
		245.44,320.41 249.6,324.57 266.24,324.57 270.39,320.41 270.39,307.93 291.19,287.14 291.19,312.09 303.66,324.57 345.24,324.57 
		357.72,312.09 357.72,299.62 353.56,295.45 332.77,295.45 332.77,299.62 316.14,299.62 316.14,282.98 332.77,282.98 332.77,287.09 
			"/>
	<path class="st1" d="M352.32,259.3c0.13-0.3,0.33-0.57,0.56-0.8c0.24-0.23,0.52-0.42,0.82-0.55c0.32-0.13,0.66-0.2,1-0.2
		c0.34,0,0.68,0.06,1,0.2c0.62,0.25,1.11,0.74,1.37,1.35c0.14,0.32,0.21,0.67,0.21,1.02c0.01,0.36-0.07,0.71-0.21,1.03
		c-0.13,0.3-0.32,0.57-0.56,0.8c-0.23,0.23-0.51,0.42-0.82,0.54c-0.32,0.13-0.66,0.2-1,0.2c-0.34,0-0.68-0.07-1-0.2
		c-0.62-0.25-1.12-0.73-1.39-1.34c-0.14-0.32-0.21-0.67-0.21-1.03C352.11,259.97,352.18,259.63,352.32,259.3z M352.74,261.19
		c0.1,0.26,0.25,0.5,0.44,0.7c0.19,0.2,0.42,0.36,0.68,0.46c0.53,0.23,1.14,0.23,1.67,0c0.26-0.11,0.49-0.26,0.69-0.46
		c0.19-0.2,0.35-0.44,0.45-0.7c0.11-0.28,0.17-0.58,0.16-0.88c0-0.3-0.05-0.59-0.16-0.86c-0.1-0.26-0.25-0.49-0.45-0.69
		c-0.19-0.19-0.42-0.35-0.67-0.46c-0.54-0.22-1.14-0.22-1.67,0c-0.25,0.11-0.48,0.27-0.68,0.46c-0.19,0.2-0.34,0.43-0.44,0.69
		c-0.11,0.27-0.17,0.57-0.16,0.86C352.59,260.62,352.64,260.91,352.74,261.19z M354.87,258.82c0.28-0.02,0.56,0.05,0.8,0.21
		c0.18,0.16,0.28,0.4,0.26,0.65c0.02,0.22-0.06,0.44-0.23,0.6c-0.16,0.13-0.36,0.21-0.56,0.22l0.86,1.33h-0.5l-0.83-1.28h-0.5v1.28
		h-0.47v-3.01H354.87z M354.66,260.15h0.3c0.09-0.01,0.17-0.03,0.25-0.06c0.07-0.03,0.13-0.08,0.18-0.15
		c0.05-0.08,0.07-0.18,0.07-0.28c0-0.08-0.02-0.17-0.06-0.24c-0.04-0.06-0.09-0.11-0.15-0.14c-0.07-0.03-0.14-0.05-0.21-0.06
		c-0.08-0.01-0.16-0.01-0.24,0h-0.62v0.93H354.66z"/>
</g>
</svg>
